<?xml version="1.0" encoding="UTF-8" standalone="no"?>
<svg width="107px" height="100px" viewBox="0 0 107 100" version="1.1" xmlns="http://www.w3.org/2000/svg" xmlns:xlink="http://www.w3.org/1999/xlink" xmlns:sketch="http://www.bohemiancoding.com/sketch/ns">
    <!-- Generator: Sketch 3.3.3 (12072) - http://www.bohemiancoding.com/sketch -->
    <title>Imported Layers</title>
    <desc>Created with Sketch.</desc>
    <defs></defs>
    <g id="Page-1" stroke="none" stroke-width="1" fill="none" fill-rule="evenodd" sketch:type="MSPage">
        <g id="Desktop-HD-Copy" sketch:type="MSArtboardGroup" transform="translate(-667.000000, -232.000000)" fill="#464646">
            <path d="M773.814024,281.719231 C773.814024,309.178205 749.903345,331.438462 720.407012,331.438462 C710.127369,331.438462 700.526667,328.733333 692.379381,324.048718 C691.453321,323.516667 677.552238,327.901282 668.956571,330.296154 C667.940071,330.579487 667.25731,329.115385 668.041976,328.326923 C673.737179,322.60641 679.464226,313.975641 676.622357,310.194872 C670.559024,302.129487 667,292.311538 667,281.719231 C667,254.260256 690.911952,232 720.407012,232 C749.903345,232 773.814024,254.260256 773.814024,281.719231 L773.814024,281.719231 Z M694.925726,295.183333 C694.925726,308.284615 706.333964,318.905128 720.407012,318.905128 C725.312452,318.905128 729.893071,317.615385 733.780738,315.379487 C734.22275,315.125641 740.855476,317.219231 744.955869,318.361538 C745.44119,318.496154 745.767286,317.797436 745.392786,317.421795 C742.67575,314.692308 739.942155,310.574359 741.298762,308.770513 C744.191583,304.921795 745.889571,300.237179 745.889571,295.183333 C745.889571,282.082051 734.481333,271.460256 720.407012,271.460256 C706.333964,271.460256 694.925726,282.082051 694.925726,295.183333 L694.925726,295.183333 Z" id="Imported-Layers" sketch:type="MSShapeGroup"></path>
        </g>
    </g>
</svg>