<?xml version="1.0" encoding="utf-8"?>
<!-- Generator: Adobe Illustrator 19.0.0, SVG Export Plug-In . SVG Version: 6.00 Build 0)  -->
<svg version="1.1" id="Capa_1" xmlns="http://www.w3.org/2000/svg" xmlns:xlink="http://www.w3.org/1999/xlink" x="0px" y="0px"
	 viewBox="0 0 83.9 77.6" style="enable-background:new 0 0 83.9 77.6;" xml:space="preserve">
<style type="text/css">
	.st0{fill:#FFFFFF;}
</style>
<path id="XMLID_439_" class="st0" d="M83.9,38.8c0,21.4-18.8,38.8-41.9,38.8c-8.1,0-15.6-2.1-22-5.8c-0.7-0.4-11.6,3-18.4,4.9
	c-0.8,0.2-1.3-0.9-0.7-1.5c4.5-4.5,9-11.2,6.7-14.1C2.8,54.7,0,47,0,38.8C0,17.4,18.8,0,41.9,0S83.9,17.4,83.9,38.8z M21.9,49.3
	c0,10.2,9,18.5,20,18.5c3.9,0,7.4-1,10.5-2.7c0.3-0.2,5.6,1.4,8.8,2.3c0.4,0.1,0.6-0.4,0.3-0.7c-2.1-2.1-4.3-5.3-3.2-6.7
	c2.3-3,3.6-6.7,3.6-10.6c0-10.2-9-18.5-20-18.5S21.9,39.1,21.9,49.3z"/>
</svg>
