<?xml version="1.0" encoding="utf-8"?>
<!-- Generator: Adobe Illustrator 19.0.0, SVG Export Plug-In . SVG Version: 6.00 Build 0)  -->
<svg version="1.1" id="Capa_1" xmlns="http://www.w3.org/2000/svg" xmlns:xlink="http://www.w3.org/1999/xlink" x="0px" y="0px"
	 viewBox="0 0 233.2 42.5" style="enable-background:new 0 0 233.2 42.5;" xml:space="preserve">
<style type="text/css">
	.st0{fill:#FFFFFF;}
</style>
<g id="XMLID_435_">
	<path id="XMLID_436_" d="M88.6,19.4c0,10.6-9.3,19.1-20.7,19.1c-4,0-7.7-1-10.9-2.8c-0.4-0.2-5.7,1.5-9.1,2.4
		c-0.4,0.1-0.7-0.5-0.4-0.8c2.2-2.2,4.4-5.5,3.3-7c-2.3-3.1-3.7-6.9-3.7-11C47.3,8.8,56.5,0.2,68,0.2S88.6,8.8,88.6,19.4z
		 M58.1,24.5c0,5,4.4,9.1,9.9,9.1c1.9,0,3.7-0.5,5.2-1.4c0.2-0.1,2.7,0.7,4.3,1.1c0.2,0.1,0.3-0.2,0.2-0.4c-1.1-1-2.1-2.6-1.6-3.3
		c1.1-1.5,1.8-3.3,1.8-5.2c0-5-4.4-9.1-9.9-9.1C62.5,15.4,58.1,19.5,58.1,24.5z"/>
	<path id="XMLID_432_" class="st0" d="M88.6,19.4c0,10.6-9.3,19.1-20.7,19.1c-4,0-7.7-1-10.9-2.8c-0.4-0.2-5.7,1.5-9.1,2.4
		c-0.4,0.1-0.7-0.5-0.4-0.8c2.2-2.2,4.4-5.5,3.3-7c-2.3-3.1-3.7-6.9-3.7-11C47.3,8.8,56.5,0.2,68,0.2S88.6,8.8,88.6,19.4z
		 M58.1,24.5c0,5,4.4,9.1,9.9,9.1c1.9,0,3.7-0.5,5.2-1.4c0.2-0.1,2.7,0.7,4.3,1.1c0.2,0.1,0.3-0.2,0.2-0.4c-1.1-1-2.1-2.6-1.6-3.3
		c1.1-1.5,1.8-3.3,1.8-5.2c0-5-4.4-9.1-9.9-9.1C62.5,15.4,58.1,19.5,58.1,24.5z"/>
	<path id="XMLID_429_" class="st0" d="M8.9,34.7v7.2H0V6.8h7.3l0.6,2.4h0.2c1.9-1.8,4.5-3,7.1-3c6.1,0,10.1,5.2,10.1,13.2
		c0,8.9-5.3,14-10.8,14c-2.2,0-4.2-0.9-5.8-2.6L8.9,34.7z M12.3,26.1c2.1,0,3.8-1.7,3.8-6.7c0-4.3-1.2-6-3.6-6
		c-1.4,0-2.4,0.5-3.5,1.9v9.6C10,25.8,11.1,26.1,12.3,26.1z"/>
	<path id="XMLID_427_" class="st0" d="M28.2,6.8h7.3l0.6,4.5h0.2c1.9-3.5,4.8-5.1,7.4-5.1c1.6,0,2.5,0.2,3.2,0.5l-1.5,7.7
		c-0.9-0.2-1.8-0.4-2.9-0.4c-1.9,0-4.2,1.1-5.4,4.4v14.4h-8.9V6.8z"/>
	<path id="XMLID_425_" class="st0" d="M96.2,19.2L88.8,6.8h9.6l1.9,3.6c0.7,1.5,1.4,3,2.1,4.5h0.2c0.5-1.5,1.1-3,1.6-4.5l1.2-3.6
		h9.3l-7.4,13.5l7.8,12.5h-9.6l-2.1-3.6c-0.8-1.5-1.5-3-2.3-4.5h-0.2c-0.6,1.5-1.2,3-1.8,4.5l-1.5,3.6h-9.3L96.2,19.2z"/>
	<path id="XMLID_423_" class="st0" d="M117.8,6.8h8.9v26h-8.9V6.8z"/>
	<path id="XMLID_421_" class="st0" d="M130.8,6.8h7.3l0.6,3.2h0.2c2.1-2,4.3-3.8,7.8-3.8c3.5,0,5.8,1.5,7.2,4.2
		c2.1-2.2,4.5-4.2,8-4.2c5.7,0,8.2,4.2,8.2,10.6v16h-8.9V17.9c0-3.3-0.8-4.2-2.6-4.2c-1,0-2.3,0.6-3.6,2v17h-8.9V17.9
		c0-3.3-0.8-4.2-2.6-4.2c-1,0-2.3,0.6-3.6,2v17h-8.9V6.8z"/>
	<path id="XMLID_419_" class="st0" d="M173.9,6.8h8.9v26h-8.9V6.8z"/>
	<path id="XMLID_417_" class="st0" d="M189,13.7h-3.4V7.1l4-0.3l1-6.8h7.4v6.8h5.9v7H198v8.9c0,2.9,1.5,3.8,3.1,3.8
		c0.8,0,1.7-0.2,2.3-0.4l1.4,6.4c-1.4,0.4-3.3,0.9-6.1,0.9c-6.8,0-9.6-4.3-9.6-10.6V13.7z"/>
	<path id="XMLID_415_" class="st0" d="M211.8,35.6c2.4,0,3.5-1,4.1-2.6l0.3-1.1l-9.9-25.1h8.9l3.1,10c0.7,2.4,1.2,4.8,1.9,7.4h0.2
		c0.5-2.5,1-4.9,1.7-7.4l2.6-10h8.5l-8.7,25.6c-2.7,7-5.5,10.2-12,10.2c-1.8,0-2.8-0.2-3.9-0.5l1.6-6.8
		C210.6,35.3,211.3,35.6,211.8,35.6z"/>
</g>
</svg>
